<?xml version="1.0" standalone="no"?>
<!DOCTYPE svg PUBLIC "-//W3C//DTD SVG 20010904//EN"
 "http://www.w3.org/TR/2001/REC-SVG-20010904/DTD/svg10.dtd">
<svg version="1.0" xmlns="http://www.w3.org/2000/svg"
 width="160.000000pt" height="160.000000pt" viewBox="0 0 160.000000 160.000000"
 preserveAspectRatio="xMidYMid meet">
<metadata>
Created by potrace 1.14, written by Peter Selinger 2001-2017
</metadata>
<g transform="translate(0.000000,160.000000) scale(0.100000,-0.100000)"
fill="#000000" stroke="none">
<path d="M141 1578 c-92 -39 -131 -137 -106 -271 13 -76 92 -287 106 -287 4 0
-2 24 -13 53 -11 28 -22 59 -24 67 -2 8 -11 42 -20 75 -24 86 -24 211 1 252
59 99 247 92 445 -15 276 -150 562 -412 726 -662 85 -130 95 -150 124 -245 35
-115 42 -212 21 -267 -43 -113 -258 -65 -473 107 -63 49 -70 62 -37 67 30 4
47 33 33 55 -5 9 -55 40 -110 69 l-99 52 3 120 c2 99 0 122 -13 136 -9 9 -21
16 -27 16 -6 0 -50 -39 -99 -86 l-88 -87 -103 42 c-57 22 -113 41 -125 41 -42
0 -38 -38 16 -150 l50 -104 -26 -35 c-15 -20 -46 -59 -69 -88 -88 -108 -67
-132 91 -109 17 3 51 8 77 11 l46 6 57 -84 c94 -142 120 -151 145 -52 8 33 15
61 16 63 1 2 22 -9 46 -25 158 -101 382 -202 493 -221 22 -4 78 -7 125 -7 72
1 92 5 123 24 44 27 86 79 93 115 2 14 8 36 13 48 8 25 7 119 -3 181 -32 201
-242 537 -481 770 -174 170 -439 344 -620 405 -123 41 -245 49 -314 20z"/>
</g>
</svg>
